<svg id="Outline" height="512" viewBox="0 0 512 512" width="512" xmlns="http://www.w3.org/2000/svg"><path d="m179.373 196.681 12.977-9.362c-34.419-47.707-53.106-85.032-62.722-107.944-4.35-10.363-7.284-18.79-9.229-25.1 16.556 8.446 49.347 31.967 114.1 93.255l11-11.621c-71.391-67.564-114.537-99.935-135.783-101.866a8 8 0 0 0 -8.627 9.215c.371 2.347 9.865 58.587 78.284 153.423z"/><path d="m493.937 393.029c-.756-.837-76.564-84.682-160.224-170.025l-11.426 11.2c13.594 13.868 26.978 27.693 39.866 41.13l-19.886 19.9-44.429 14.81c-6.477-6.525-12.854-13.086-19-19.553l-11.598 11.022c7.343 7.721 15 15.574 22.77 23.341a8 8 0 0 0 8.187 1.932l45.471-15.157c9.311 12.2 35.082 45.395 53.822 64.135 20.353 20.353 25.937 68.288 25.99 68.766a8 8 0 0 0 7.942 7.117 8.165 8.165 0 0 0 .893-.049l50.912-5.657a8 8 0 0 0 7.036-6.819l5.657-39.6a8 8 0 0 0 -1.983-6.493zm-109.686-94.535-17.181 17.181c-4.012-5.094-7.428-9.515-9.893-12.73l16.04-16.046q5.6 5.87 11.034 11.595zm91.049 132.23-37.064 4.117c-2.657-15.869-10.491-51.449-29.432-70.391-9.6-9.6-21.4-23.522-31.685-36.195l18.139-18.139c42.559 45.052 75.227 80.884 84.291 90.864z"/><path d="m446.059 401.705h16v16.001h-16z" transform="matrix(.707 -.707 .707 .707 -156.715 441.068)"/><path d="m410.911 43.258a8 8 0 0 0 -8.627-9.215c-10.294.936-30.825 8.176-90.017 60.02-34.165 29.924-77.163 71.189-127.8 122.648-86.1 87.5-165.612 175.44-166.4 176.318a8 8 0 0 0 -1.983 6.494l5.657 39.6a8 8 0 0 0 7.036 6.819l50.908 5.658a8.165 8.165 0 0 0 .893.049 8 8 0 0 0 7.942-7.117 199.183 199.183 0 0 1 5.423-27.062c5.186-19.014 12.3-33.435 20.566-41.7 18.741-18.741 44.512-51.938 53.823-64.136l45.468 15.152a8 8 0 0 0 8.187-1.932c88.37-88.369 134.913-159.792 158.394-204.148 25.783-48.701 30.348-76.298 30.53-77.448zm-272.127 243.642 16.039 16.045c-2.465 3.215-5.881 7.636-9.893 12.73l-17.18-17.175q5.433-5.729 11.034-11.6zm-35.584 77.551c-18.94 18.942-26.774 54.521-29.431 70.39l-37.069-4.117-4.249-29.744c9.062-9.978 41.726-45.805 84.292-90.863l18.138 18.138c-10.281 12.674-22.088 26.599-31.681 36.196zm110.962-54.411-44.429-14.81-19.886-19.9c14.839-15.47 30.339-31.46 46.058-47.436 50.353-51.17 93.054-92.154 126.918-121.813 35.951-31.486 56.771-45.63 68.746-51.758-10.329 33.277-48.404 125.755-177.407 255.717z"/><path d="m49.94 401.706h16.001v16h-16.001z" transform="matrix(.707 -.707 .707 .707 -272.735 160.97)"/></svg>